<svg id="visual" viewBox="0 0 900 600" width="900" height="600" xmlns="http://www.w3.org/2000/svg" xmlns:xlink="http://www.w3.org/1999/xlink" version="1.1"><path d="M673 600L664.3 585.7C655.7 571.3 638.3 542.7 643.7 514.2C649 485.7 677 457.3 693 428.8C709 400.3 713 371.7 713.8 343C714.7 314.3 712.3 285.7 695 257C677.7 228.3 645.3 199.7 643.8 171.2C642.3 142.7 671.7 114.3 686.8 85.8C702 57.3 703 28.7 703.5 14.3L704 0L900 0L900 14.3C900 28.7 900 57.3 900 85.8C900 114.3 900 142.7 900 171.2C900 199.7 900 228.3 900 257C900 285.7 900 314.3 900 343C900 371.7 900 400.3 900 428.8C900 457.3 900 485.7 900 514.2C900 542.7 900 571.3 900 585.7L900 600Z" fill="#eeedfa"></path><path d="M686 600L686.5 585.7C687 571.3 688 542.7 697.7 514.2C707.3 485.7 725.7 457.3 727.3 428.8C729 400.3 714 371.7 716 343C718 314.3 737 285.7 736.5 257C736 228.3 716 199.7 711.8 171.2C707.7 142.7 719.3 114.3 716.8 85.8C714.3 57.3 697.7 28.7 689.3 14.3L681 0L900 0L900 14.3C900 28.7 900 57.3 900 85.8C900 114.3 900 142.7 900 171.2C900 199.7 900 228.3 900 257C900 285.7 900 314.3 900 343C900 371.7 900 400.3 900 428.8C900 457.3 900 485.7 900 514.2C900 542.7 900 571.3 900 585.7L900 600Z" fill="#cdc7f9"></path><path d="M783 600L772.7 585.7C762.3 571.3 741.7 542.7 734.5 514.2C727.3 485.7 733.7 457.3 743.3 428.8C753 400.3 766 371.7 764 343C762 314.3 745 285.7 739.7 257C734.3 228.3 740.7 199.7 748.3 171.2C756 142.7 765 114.3 763.2 85.8C761.3 57.3 748.7 28.7 742.3 14.3L736 0L900 0L900 14.3C900 28.7 900 57.3 900 85.8C900 114.3 900 142.7 900 171.2C900 199.7 900 228.3 900 257C900 285.7 900 314.3 900 343C900 371.7 900 400.3 900 428.8C900 457.3 900 485.7 900 514.2C900 542.7 900 571.3 900 585.7L900 600Z" fill="#ada2f6"></path><path d="M797 600L793.7 585.7C790.3 571.3 783.7 542.7 784.8 514.2C786 485.7 795 457.3 798.2 428.8C801.3 400.3 798.7 371.7 796.5 343C794.3 314.3 792.7 285.7 787.8 257C783 228.3 775 199.7 770 171.2C765 142.7 763 114.3 761.7 85.8C760.3 57.3 759.7 28.7 759.3 14.3L759 0L900 0L900 14.3C900 28.7 900 57.3 900 85.8C900 114.3 900 142.7 900 171.2C900 199.7 900 228.3 900 257C900 285.7 900 314.3 900 343C900 371.7 900 400.3 900 428.8C900 457.3 900 485.7 900 514.2C900 542.7 900 571.3 900 585.7L900 600Z" fill="#8e7cf1"></path><path d="M851 600L850 585.7C849 571.3 847 542.7 841.2 514.2C835.3 485.7 825.7 457.3 824.7 428.8C823.7 400.3 831.3 371.7 837 343C842.7 314.3 846.3 285.7 847.8 257C849.3 228.3 848.7 199.7 846.5 171.2C844.3 142.7 840.7 114.3 837.8 85.8C835 57.3 833 28.7 832 14.3L831 0L900 0L900 14.3C900 28.7 900 57.3 900 85.8C900 114.3 900 142.7 900 171.2C900 199.7 900 228.3 900 257C900 285.7 900 314.3 900 343C900 371.7 900 400.3 900 428.8C900 457.3 900 485.7 900 514.2C900 542.7 900 571.3 900 585.7L900 600Z" fill="#6d56e9"></path></svg>