<svg id="visual" viewBox="0 0 900 600" width="900" height="600" xmlns="http://www.w3.org/2000/svg" xmlns:xlink="http://www.w3.org/1999/xlink" version="1.1"><path d="M621 600L620 585.7C619 571.3 617 542.7 622.3 514.2C627.7 485.7 640.3 457.3 655.8 428.8C671.3 400.3 689.7 371.7 686.5 343C683.3 314.3 658.7 285.7 644.7 257C630.7 228.3 627.3 199.7 639.5 171.2C651.7 142.7 679.3 114.3 676.3 85.8C673.3 57.3 639.7 28.7 622.8 14.3L606 0L900 0L900 14.3C900 28.7 900 57.3 900 85.8C900 114.3 900 142.7 900 171.2C900 199.7 900 228.3 900 257C900 285.7 900 314.3 900 343C900 371.7 900 400.3 900 428.8C900 457.3 900 485.7 900 514.2C900 542.7 900 571.3 900 585.7L900 600Z" fill="#eeedfa"></path><path d="M672 600L668.5 585.7C665 571.3 658 542.7 659.3 514.2C660.7 485.7 670.3 457.3 685.8 428.8C701.3 400.3 722.7 371.7 726 343C729.3 314.3 714.7 285.7 702 257C689.3 228.3 678.7 199.7 675.8 171.2C673 142.7 678 114.3 686.8 85.8C695.7 57.3 708.3 28.7 714.7 14.3L721 0L900 0L900 14.3C900 28.7 900 57.3 900 85.8C900 114.3 900 142.7 900 171.2C900 199.7 900 228.3 900 257C900 285.7 900 314.3 900 343C900 371.7 900 400.3 900 428.8C900 457.3 900 485.7 900 514.2C900 542.7 900 571.3 900 585.7L900 600Z" fill="#d3cffa"></path><path d="M770 600L771.5 585.7C773 571.3 776 542.7 763.8 514.2C751.7 485.7 724.3 457.3 709.5 428.8C694.7 400.3 692.3 371.7 701.5 343C710.7 314.3 731.3 285.7 732.7 257C734 228.3 716 199.7 715.5 171.2C715 142.7 732 114.3 736 85.8C740 57.3 731 28.7 726.5 14.3L722 0L900 0L900 14.3C900 28.7 900 57.3 900 85.8C900 114.3 900 142.7 900 171.2C900 199.7 900 228.3 900 257C900 285.7 900 314.3 900 343C900 371.7 900 400.3 900 428.8C900 457.3 900 485.7 900 514.2C900 542.7 900 571.3 900 585.7L900 600Z" fill="#bab1f8"></path><path d="M768 600L771.7 585.7C775.3 571.3 782.7 542.7 780.8 514.2C779 485.7 768 457.3 771.2 428.8C774.3 400.3 791.7 371.7 796.5 343C801.3 314.3 793.7 285.7 783.8 257C774 228.3 762 199.7 757.2 171.2C752.3 142.7 754.7 114.3 761.8 85.8C769 57.3 781 28.7 787 14.3L793 0L900 0L900 14.3C900 28.7 900 57.3 900 85.8C900 114.3 900 142.7 900 171.2C900 199.7 900 228.3 900 257C900 285.7 900 314.3 900 343C900 371.7 900 400.3 900 428.8C900 457.3 900 485.7 900 514.2C900 542.7 900 571.3 900 585.7L900 600Z" fill="#a093f4"></path><path d="M791 600L789 585.7C787 571.3 783 542.7 781 514.2C779 485.7 779 457.3 785.8 428.8C792.7 400.3 806.3 371.7 814 343C821.7 314.3 823.3 285.7 825.3 257C827.3 228.3 829.7 199.7 824.8 171.2C820 142.7 808 114.3 808.2 85.8C808.3 57.3 820.7 28.7 826.8 14.3L833 0L900 0L900 14.3C900 28.7 900 57.3 900 85.8C900 114.3 900 142.7 900 171.2C900 199.7 900 228.3 900 257C900 285.7 900 314.3 900 343C900 371.7 900 400.3 900 428.8C900 457.3 900 485.7 900 514.2C900 542.7 900 571.3 900 585.7L900 600Z" fill="#8775ef"></path><path d="M853 600L852.3 585.7C851.7 571.3 850.3 542.7 850.5 514.2C850.7 485.7 852.3 457.3 849.3 428.8C846.3 400.3 838.7 371.7 836.5 343C834.3 314.3 837.7 285.7 837.8 257C838 228.3 835 199.7 832.3 171.2C829.7 142.7 827.3 114.3 830.3 85.8C833.3 57.3 841.7 28.7 845.8 14.3L850 0L900 0L900 14.3C900 28.7 900 57.3 900 85.8C900 114.3 900 142.7 900 171.2C900 199.7 900 228.3 900 257C900 285.7 900 314.3 900 343C900 371.7 900 400.3 900 428.8C900 457.3 900 485.7 900 514.2C900 542.7 900 571.3 900 585.7L900 600Z" fill="#6d56e9"></path></svg>