<svg id="visual" viewBox="0 0 900 600" width="900" height="600" xmlns="http://www.w3.org/2000/svg" xmlns:xlink="http://www.w3.org/1999/xlink" version="1.1"><path d="M624 600L636.3 585.7C648.7 571.3 673.3 542.7 678 514.2C682.7 485.7 667.3 457.3 662.8 428.8C658.3 400.3 664.7 371.7 660.8 343C657 314.3 643 285.7 648.3 257C653.7 228.3 678.3 199.7 682.3 171.2C686.3 142.7 669.7 114.3 656.5 85.8C643.3 57.3 633.7 28.7 628.8 14.3L624 0L900 0L900 14.3C900 28.7 900 57.3 900 85.8C900 114.3 900 142.7 900 171.2C900 199.7 900 228.3 900 257C900 285.7 900 314.3 900 343C900 371.7 900 400.3 900 428.8C900 457.3 900 485.7 900 514.2C900 542.7 900 571.3 900 585.7L900 600Z" fill="#eeedfa"></path><path d="M711 600L716.2 585.7C721.3 571.3 731.7 542.7 735.8 514.2C740 485.7 738 457.3 727 428.8C716 400.3 696 371.7 689.8 343C683.7 314.3 691.3 285.7 701.3 257C711.3 228.3 723.7 199.7 726.8 171.2C730 142.7 724 114.3 714.7 85.8C705.3 57.3 692.7 28.7 686.3 14.3L680 0L900 0L900 14.3C900 28.7 900 57.3 900 85.8C900 114.3 900 142.7 900 171.2C900 199.7 900 228.3 900 257C900 285.7 900 314.3 900 343C900 371.7 900 400.3 900 428.8C900 457.3 900 485.7 900 514.2C900 542.7 900 571.3 900 585.7L900 600Z" fill="#d3cffa"></path><path d="M689 600L692.7 585.7C696.3 571.3 703.7 542.7 705.3 514.2C707 485.7 703 457.3 703 428.8C703 400.3 707 371.7 710.7 343C714.3 314.3 717.7 285.7 714.3 257C711 228.3 701 199.7 697.2 171.2C693.3 142.7 695.7 114.3 706 85.8C716.3 57.3 734.7 28.7 743.8 14.3L753 0L900 0L900 14.3C900 28.7 900 57.3 900 85.8C900 114.3 900 142.7 900 171.2C900 199.7 900 228.3 900 257C900 285.7 900 314.3 900 343C900 371.7 900 400.3 900 428.8C900 457.3 900 485.7 900 514.2C900 542.7 900 571.3 900 585.7L900 600Z" fill="#bab1f8"></path><path d="M777 600L779.2 585.7C781.3 571.3 785.7 542.7 791.2 514.2C796.7 485.7 803.3 457.3 800.7 428.8C798 400.3 786 371.7 779.3 343C772.7 314.3 771.3 285.7 772 257C772.7 228.3 775.3 199.7 769.5 171.2C763.7 142.7 749.3 114.3 754.7 85.8C760 57.3 785 28.7 797.5 14.3L810 0L900 0L900 14.3C900 28.7 900 57.3 900 85.8C900 114.3 900 142.7 900 171.2C900 199.7 900 228.3 900 257C900 285.7 900 314.3 900 343C900 371.7 900 400.3 900 428.8C900 457.3 900 485.7 900 514.2C900 542.7 900 571.3 900 585.7L900 600Z" fill="#a093f4"></path><path d="M802 600L805.3 585.7C808.7 571.3 815.3 542.7 818.7 514.2C822 485.7 822 457.3 820 428.8C818 400.3 814 371.7 811.2 343C808.3 314.3 806.7 285.7 808.7 257C810.7 228.3 816.3 199.7 821.5 171.2C826.7 142.7 831.3 114.3 831.8 85.8C832.3 57.3 828.7 28.7 826.8 14.3L825 0L900 0L900 14.3C900 28.7 900 57.3 900 85.8C900 114.3 900 142.7 900 171.2C900 199.7 900 228.3 900 257C900 285.7 900 314.3 900 343C900 371.7 900 400.3 900 428.8C900 457.3 900 485.7 900 514.2C900 542.7 900 571.3 900 585.7L900 600Z" fill="#8775ef"></path><path d="M875 600L869.8 585.7C864.7 571.3 854.3 542.7 847.8 514.2C841.3 485.7 838.7 457.3 838.7 428.8C838.7 400.3 841.3 371.7 845 343C848.7 314.3 853.3 285.7 851.2 257C849 228.3 840 199.7 835.8 171.2C831.7 142.7 832.3 114.3 839.5 85.8C846.7 57.3 860.3 28.7 867.2 14.3L874 0L900 0L900 14.3C900 28.7 900 57.3 900 85.8C900 114.3 900 142.7 900 171.2C900 199.7 900 228.3 900 257C900 285.7 900 314.3 900 343C900 371.7 900 400.3 900 428.8C900 457.3 900 485.7 900 514.2C900 542.7 900 571.3 900 585.7L900 600Z" fill="#6d56e9"></path></svg>