<svg xmlns="http://www.w3.org/2000/svg" viewBox="0 0 24 24" height="512" width="512"><g class="nc-int-icon js-nc-int-icon nc-int-icon-rotate"><g class="nc-int-icon-a"><path d="M12,7c-2.76,0-5,2.24-5,5s2.24,5,5,5,5-2.24,5-5-2.24-5-5-5Zm0,7c-1.1,0-2-.9-2-2s.9-2,2-2,2,.9,2,2-.9,2-2,2Zm4.95-6.95c-.59-.59-.59-1.54,0-2.12l1.41-1.41c.59-.59,1.54-.59,2.12,0,.59,.59,.59,1.54,0,2.12l-1.41,1.41c-.29,.29-.68,.44-1.06,.44s-.77-.15-1.06-.44ZM7.05,16.95c.59,.59,.59,1.54,0,2.12l-1.41,1.41c-.29,.29-.68,.44-1.06,.44s-.77-.15-1.06-.44c-.59-.59-.59-1.54,0-2.12l1.41-1.41c.59-.59,1.54-.59,2.12,0ZM3.51,5.64c-.59-.59-.59-1.54,0-2.12,.59-.59,1.54-.59,2.12,0l1.41,1.41c.59,.59,.59,1.54,0,2.12-.29,.29-.68,.44-1.06,.44s-.77-.15-1.06-.44l-1.41-1.41Zm16.97,12.73c.59,.59,.59,1.54,0,2.12-.29,.29-.68,.44-1.06,.44s-.77-.15-1.06-.44l-1.41-1.41c-.59-.59-.59-1.54,0-2.12,.59-.59,1.54-.59,2.12,0l1.41,1.41Zm3.51-6.36c0,.83-.67,1.5-1.5,1.5h-2c-.83,0-1.5-.67-1.5-1.5s.67-1.5,1.5-1.5h2c.83,0,1.5,.67,1.5,1.5ZM3.5,13.5H1.5c-.83,0-1.5-.67-1.5-1.5s.67-1.5,1.5-1.5H3.5c.83,0,1.5,.67,1.5,1.5s-.67,1.5-1.5,1.5ZM10.5,3.5V1.5c0-.83,.67-1.5,1.5-1.5s1.5,.67,1.5,1.5V3.5c0,.83-.67,1.5-1.5,1.5s-1.5-.67-1.5-1.5Zm3,17v2c0,.83-.67,1.5-1.5,1.5s-1.5-.67-1.5-1.5v-2c0-.83,.67-1.5,1.5-1.5s1.5,.67,1.5,1.5Z"></path></g><g class="nc-int-icon-b"><path d="M12.009,24A12.067,12.067,0,0,1,.075,10.725,12.121,12.121,0,0,1,10.1.152a13,13,0,0,1,5.03.206,2.5,2.5,0,0,1,1.8,1.8,2.47,2.47,0,0,1-.7,2.425c-4.559,4.168-4.165,10.645.807,14.412h0a2.5,2.5,0,0,1-.7,4.319A13.875,13.875,0,0,1,12.009,24ZM20.5,12a1,1,0,0,1-.97-.757l-.358-1.43L17.74,9.428a1,1,0,0,1,.035-1.94l1.4-.325.351-1.406a1,1,0,0,1,1.94,0l.355,1.418,1.418.355a1,1,0,0,1,0,1.94l-1.418.355-.355,1.418A1,1,0,0,1,20.5,12ZM23,17.015a1,1,0,0,0,0,2A1,1,0,0,0,23,17.015Zm-6-4a1,1,0,0,0,0,2A1,1,0,0,0,17,13.015Z"></path></g></g><script>function initIntIcon(i){if(i.classList.contains("js-nc-int-icon-loaded")) return;i.classList.add("js-nc-int-icon-loaded");i.closest("svg").addEventListener("click",function(n){i.classList.toggle("nc-int-icon-state-b")});};var intIcons=document.getElementsByClassName("js-nc-int-icon");for(var i=0;intIcons.length>i;i++){initIntIcon(intIcons[i]);}</script><style>.nc-int-icon-rotate{--animation-duration:0.4s;}.nc-int-icon{position:relative;}.nc-int-icon-b{position: absolute;top: calc(50% - 0.5em);left: calc(50% - 0.5em);opacity: 0;}.nc-int-icon-rotate .nc-int-icon-a,.nc-int-icon-rotate .nc-int-icon-b{transition: opacity 0s calc(var(--animation-duration)/2), transform var(--animation-duration); transform-origin: center center;}.nc-int-icon-rotate .nc-int-icon-b{transform: rotate(90deg) scale(0.6);}.nc-int-icon-state-b .nc-int-icon-a{opacity: 0;}.nc-int-icon-state-b .nc-int-icon-b{opacity: 1;}.nc-int-icon-rotate.nc-int-icon-state-b .nc-int-icon-a{transform: rotate(-90deg) scale(0.6);}.nc-int-icon-rotate.nc-int-icon-state-b .nc-int-icon-b{transform: rotate(0);}</style></svg>