<svg id="visual" viewBox="0 0 900 600" width="900" height="600" xmlns="http://www.w3.org/2000/svg" xmlns:xlink="http://www.w3.org/1999/xlink" version="1.1"><path d="M627 600L624.7 585.7C622.3 571.3 617.7 542.7 614.5 514.2C611.3 485.7 609.7 457.3 626.3 428.8C643 400.3 678 371.7 681.7 343C685.3 314.3 657.7 285.7 646.3 257C635 228.3 640 199.7 641.7 171.2C643.3 142.7 641.7 114.3 653.2 85.8C664.7 57.3 689.3 28.7 701.7 14.3L714 0L900 0L900 14.3C900 28.7 900 57.3 900 85.8C900 114.3 900 142.7 900 171.2C900 199.7 900 228.3 900 257C900 285.7 900 314.3 900 343C900 371.7 900 400.3 900 428.8C900 457.3 900 485.7 900 514.2C900 542.7 900 571.3 900 585.7L900 600Z" fill="#eeedfa"></path><path d="M705 600L709.7 585.7C714.3 571.3 723.7 542.7 729.5 514.2C735.3 485.7 737.7 457.3 735.8 428.8C734 400.3 728 371.7 723 343C718 314.3 714 285.7 717.8 257C721.7 228.3 733.3 199.7 737.7 171.2C742 142.7 739 114.3 726.5 85.8C714 57.3 692 28.7 681 14.3L670 0L900 0L900 14.3C900 28.7 900 57.3 900 85.8C900 114.3 900 142.7 900 171.2C900 199.7 900 228.3 900 257C900 285.7 900 314.3 900 343C900 371.7 900 400.3 900 428.8C900 457.3 900 485.7 900 514.2C900 542.7 900 571.3 900 585.7L900 600Z" fill="#cdc7f9"></path><path d="M732 600L740 585.7C748 571.3 764 542.7 765.7 514.2C767.3 485.7 754.7 457.3 746 428.8C737.3 400.3 732.7 371.7 737.2 343C741.7 314.3 755.3 285.7 754.5 257C753.7 228.3 738.3 199.7 737.5 171.2C736.7 142.7 750.3 114.3 752.8 85.8C755.3 57.3 746.7 28.7 742.3 14.3L738 0L900 0L900 14.3C900 28.7 900 57.3 900 85.8C900 114.3 900 142.7 900 171.2C900 199.7 900 228.3 900 257C900 285.7 900 314.3 900 343C900 371.7 900 400.3 900 428.8C900 457.3 900 485.7 900 514.2C900 542.7 900 571.3 900 585.7L900 600Z" fill="#ada2f6"></path><path d="M804 600L797 585.7C790 571.3 776 542.7 770.2 514.2C764.3 485.7 766.7 457.3 775.7 428.8C784.7 400.3 800.3 371.7 810.3 343C820.3 314.3 824.7 285.7 822.3 257C820 228.3 811 199.7 805.5 171.2C800 142.7 798 114.3 796.5 85.8C795 57.3 794 28.7 793.5 14.3L793 0L900 0L900 14.3C900 28.7 900 57.3 900 85.8C900 114.3 900 142.7 900 171.2C900 199.7 900 228.3 900 257C900 285.7 900 314.3 900 343C900 371.7 900 400.3 900 428.8C900 457.3 900 485.7 900 514.2C900 542.7 900 571.3 900 585.7L900 600Z" fill="#8e7cf1"></path><path d="M855 600L852 585.7C849 571.3 843 542.7 838.8 514.2C834.7 485.7 832.3 457.3 835.2 428.8C838 400.3 846 371.7 845.3 343C844.7 314.3 835.3 285.7 837.5 257C839.7 228.3 853.3 199.7 852.8 171.2C852.3 142.7 837.7 114.3 838.2 85.8C838.7 57.3 854.3 28.7 862.2 14.3L870 0L900 0L900 14.3C900 28.7 900 57.3 900 85.8C900 114.3 900 142.7 900 171.2C900 199.7 900 228.3 900 257C900 285.7 900 314.3 900 343C900 371.7 900 400.3 900 428.8C900 457.3 900 485.7 900 514.2C900 542.7 900 571.3 900 585.7L900 600Z" fill="#6d56e9"></path></svg>