<svg id="visual" viewBox="0 0 900 600" width="900" height="600" xmlns="http://www.w3.org/2000/svg" xmlns:xlink="http://www.w3.org/1999/xlink" version="1.1"><path d="M674 600L676 585.7C678 571.3 682 542.7 687.3 514.2C692.7 485.7 699.3 457.3 688.8 428.8C678.3 400.3 650.7 371.7 648.7 343C646.7 314.3 670.3 285.7 678.2 257C686 228.3 678 199.7 664.3 171.2C650.7 142.7 631.3 114.3 624.7 85.8C618 57.3 624 28.7 627 14.3L630 0L900 0L900 14.3C900 28.7 900 57.3 900 85.8C900 114.3 900 142.7 900 171.2C900 199.7 900 228.3 900 257C900 285.7 900 314.3 900 343C900 371.7 900 400.3 900 428.8C900 457.3 900 485.7 900 514.2C900 542.7 900 571.3 900 585.7L900 600Z" fill="#eeedfa"></path><path d="M698 600L689.7 585.7C681.3 571.3 664.7 542.7 669.2 514.2C673.7 485.7 699.3 457.3 699 428.8C698.7 400.3 672.3 371.7 673 343C673.7 314.3 701.3 285.7 707.2 257C713 228.3 697 199.7 683.2 171.2C669.3 142.7 657.7 114.3 660.8 85.8C664 57.3 682 28.7 691 14.3L700 0L900 0L900 14.3C900 28.7 900 57.3 900 85.8C900 114.3 900 142.7 900 171.2C900 199.7 900 228.3 900 257C900 285.7 900 314.3 900 343C900 371.7 900 400.3 900 428.8C900 457.3 900 485.7 900 514.2C900 542.7 900 571.3 900 585.7L900 600Z" fill="#d8d4fa"></path><path d="M731 600L735.7 585.7C740.3 571.3 749.7 542.7 742.3 514.2C735 485.7 711 457.3 704.7 428.8C698.3 400.3 709.7 371.7 717.2 343C724.7 314.3 728.3 285.7 727.2 257C726 228.3 720 199.7 711.8 171.2C703.7 142.7 693.3 114.3 689 85.8C684.7 57.3 686.3 28.7 687.2 14.3L688 0L900 0L900 14.3C900 28.7 900 57.3 900 85.8C900 114.3 900 142.7 900 171.2C900 199.7 900 228.3 900 257C900 285.7 900 314.3 900 343C900 371.7 900 400.3 900 428.8C900 457.3 900 485.7 900 514.2C900 542.7 900 571.3 900 585.7L900 600Z" fill="#c2bbf8"></path><path d="M744 600L741.2 585.7C738.3 571.3 732.7 542.7 739 514.2C745.3 485.7 763.7 457.3 773.8 428.8C784 400.3 786 371.7 784.7 343C783.3 314.3 778.7 285.7 767.7 257C756.7 228.3 739.3 199.7 733.3 171.2C727.3 142.7 732.7 114.3 740.7 85.8C748.7 57.3 759.3 28.7 764.7 14.3L770 0L900 0L900 14.3C900 28.7 900 57.3 900 85.8C900 114.3 900 142.7 900 171.2C900 199.7 900 228.3 900 257C900 285.7 900 314.3 900 343C900 371.7 900 400.3 900 428.8C900 457.3 900 485.7 900 514.2C900 542.7 900 571.3 900 585.7L900 600Z" fill="#ada2f6"></path><path d="M819 600L811.7 585.7C804.3 571.3 789.7 542.7 784 514.2C778.3 485.7 781.7 457.3 786.8 428.8C792 400.3 799 371.7 794.8 343C790.7 314.3 775.3 285.7 772 257C768.7 228.3 777.3 199.7 780 171.2C782.7 142.7 779.3 114.3 783.7 85.8C788 57.3 800 28.7 806 14.3L812 0L900 0L900 14.3C900 28.7 900 57.3 900 85.8C900 114.3 900 142.7 900 171.2C900 199.7 900 228.3 900 257C900 285.7 900 314.3 900 343C900 371.7 900 400.3 900 428.8C900 457.3 900 485.7 900 514.2C900 542.7 900 571.3 900 585.7L900 600Z" fill="#9889f3"></path><path d="M844 600L844 585.7C844 571.3 844 542.7 839.8 514.2C835.7 485.7 827.3 457.3 827 428.8C826.7 400.3 834.3 371.7 839.2 343C844 314.3 846 285.7 842.5 257C839 228.3 830 199.7 823.7 171.2C817.3 142.7 813.7 114.3 818.5 85.8C823.3 57.3 836.7 28.7 843.3 14.3L850 0L900 0L900 14.3C900 28.7 900 57.3 900 85.8C900 114.3 900 142.7 900 171.2C900 199.7 900 228.3 900 257C900 285.7 900 314.3 900 343C900 371.7 900 400.3 900 428.8C900 457.3 900 485.7 900 514.2C900 542.7 900 571.3 900 585.7L900 600Z" fill="#8370ee"></path><path d="M853 600L857.2 585.7C861.3 571.3 869.7 542.7 872.7 514.2C875.7 485.7 873.3 457.3 870.5 428.8C867.7 400.3 864.3 371.7 863.8 343C863.3 314.3 865.7 285.7 861.5 257C857.3 228.3 846.7 199.7 843 171.2C839.3 142.7 842.7 114.3 845.5 85.8C848.3 57.3 850.7 28.7 851.8 14.3L853 0L900 0L900 14.3C900 28.7 900 57.3 900 85.8C900 114.3 900 142.7 900 171.2C900 199.7 900 228.3 900 257C900 285.7 900 314.3 900 343C900 371.7 900 400.3 900 428.8C900 457.3 900 485.7 900 514.2C900 542.7 900 571.3 900 585.7L900 600Z" fill="#6d56e9"></path></svg>