<svg id="visual" viewBox="0 0 900 600" width="900" height="600" xmlns="http://www.w3.org/2000/svg" xmlns:xlink="http://www.w3.org/1999/xlink" version="1.1"><path d="M0 406L12.5 406.3C25 406.7 50 407.3 75 412.7C100 418 125 428 150 431.3C175 434.7 200 431.3 225 427.7C250 424 275 420 300 422.2C325 424.3 350 432.7 375 433.3C400 434 425 427 450 425.8C475 424.7 500 429.3 525 432C550 434.7 575 435.3 600 433.7C625 432 650 428 675 422.7C700 417.3 725 410.7 750 412.3C775 414 800 424 825 424.3C850 424.7 875 415.3 887.5 410.7L900 406L900 601L887.5 601C875 601 850 601 825 601C800 601 775 601 750 601C725 601 700 601 675 601C650 601 625 601 600 601C575 601 550 601 525 601C500 601 475 601 450 601C425 601 400 601 375 601C350 601 325 601 300 601C275 601 250 601 225 601C200 601 175 601 150 601C125 601 100 601 75 601C50 601 25 601 12.5 601L0 601Z" fill="#fa7268"></path><path d="M0 457L12.5 452.5C25 448 50 439 75 441.2C100 443.3 125 456.7 150 457.5C175 458.3 200 446.7 225 448.5C250 450.3 275 465.7 300 468.8C325 472 350 463 375 454.7C400 446.3 425 438.7 450 437C475 435.3 500 439.7 525 441C550 442.3 575 440.7 600 442C625 443.3 650 447.7 675 447.3C700 447 725 442 750 441.7C775 441.3 800 445.7 825 448.5C850 451.3 875 452.7 887.5 453.3L900 454L900 601L887.5 601C875 601 850 601 825 601C800 601 775 601 750 601C725 601 700 601 675 601C650 601 625 601 600 601C575 601 550 601 525 601C500 601 475 601 450 601C425 601 400 601 375 601C350 601 325 601 300 601C275 601 250 601 225 601C200 601 175 601 150 601C125 601 100 601 75 601C50 601 25 601 12.5 601L0 601Z" fill="#f36567"></path><path d="M0 492L12.5 491C25 490 50 488 75 483.3C100 478.7 125 471.3 150 467.7C175 464 200 464 225 466.7C250 469.3 275 474.7 300 480.5C325 486.3 350 492.7 375 490C400 487.3 425 475.7 450 475.8C475 476 500 488 525 491.2C550 494.3 575 488.7 600 481.8C625 475 650 467 675 467.5C700 468 725 477 750 477.2C775 477.3 800 468.7 825 464C850 459.3 875 458.7 887.5 458.3L900 458L900 601L887.5 601C875 601 850 601 825 601C800 601 775 601 750 601C725 601 700 601 675 601C650 601 625 601 600 601C575 601 550 601 525 601C500 601 475 601 450 601C425 601 400 601 375 601C350 601 325 601 300 601C275 601 250 601 225 601C200 601 175 601 150 601C125 601 100 601 75 601C50 601 25 601 12.5 601L0 601Z" fill="#eb5967"></path><path d="M0 489L12.5 490.3C25 491.7 50 494.3 75 499.8C100 505.3 125 513.7 150 517.8C175 522 200 522 225 518.2C250 514.3 275 506.7 300 501.3C325 496 350 493 375 492.5C400 492 425 494 450 494.7C475 495.3 500 494.7 525 498.5C550 502.3 575 510.7 600 514.7C625 518.7 650 518.3 675 512C700 505.7 725 493.3 750 493.3C775 493.3 800 505.7 825 509.2C850 512.7 875 507.3 887.5 504.7L900 502L900 601L887.5 601C875 601 850 601 825 601C800 601 775 601 750 601C725 601 700 601 675 601C650 601 625 601 600 601C575 601 550 601 525 601C500 601 475 601 450 601C425 601 400 601 375 601C350 601 325 601 300 601C275 601 250 601 225 601C200 601 175 601 150 601C125 601 100 601 75 601C50 601 25 601 12.5 601L0 601Z" fill="#e34c67"></path><path d="M0 507L12.5 511.8C25 516.7 50 526.3 75 526.5C100 526.7 125 517.3 150 517.5C175 517.7 200 527.3 225 528.7C250 530 275 523 300 522C325 521 350 526 375 524.7C400 523.3 425 515.7 450 513.7C475 511.7 500 515.3 525 519.8C550 524.3 575 529.7 600 530C625 530.3 650 525.7 675 523C700 520.3 725 519.7 750 522.5C775 525.3 800 531.7 825 533.8C850 536 875 534 887.5 533L900 532L900 601L887.5 601C875 601 850 601 825 601C800 601 775 601 750 601C725 601 700 601 675 601C650 601 625 601 600 601C575 601 550 601 525 601C500 601 475 601 450 601C425 601 400 601 375 601C350 601 325 601 300 601C275 601 250 601 225 601C200 601 175 601 150 601C125 601 100 601 75 601C50 601 25 601 12.5 601L0 601Z" fill="#da3f67"></path><path d="M0 549L12.5 550.5C25 552 50 555 75 554.3C100 553.7 125 549.3 150 546.3C175 543.3 200 541.7 225 540.2C250 538.7 275 537.3 300 538.2C325 539 350 542 375 546.2C400 550.3 425 555.7 450 556C475 556.3 500 551.7 525 549C550 546.3 575 545.7 600 544.5C625 543.3 650 541.7 675 540.3C700 539 725 538 750 540.3C775 542.7 800 548.3 825 549.8C850 551.3 875 548.7 887.5 547.3L900 546L900 601L887.5 601C875 601 850 601 825 601C800 601 775 601 750 601C725 601 700 601 675 601C650 601 625 601 600 601C575 601 550 601 525 601C500 601 475 601 450 601C425 601 400 601 375 601C350 601 325 601 300 601C275 601 250 601 225 601C200 601 175 601 150 601C125 601 100 601 75 601C50 601 25 601 12.5 601L0 601Z" fill="#d03267"></path><path d="M0 570L12.5 571C25 572 50 574 75 574.2C100 574.3 125 572.7 150 571C175 569.3 200 567.7 225 567C250 566.3 275 566.7 300 568.5C325 570.3 350 573.7 375 572.8C400 572 425 567 450 564.5C475 562 500 562 525 562C550 562 575 562 600 564.7C625 567.3 650 572.7 675 574.7C700 576.7 725 575.3 750 574.3C775 573.3 800 572.7 825 569.8C850 567 875 562 887.5 559.5L900 557L900 601L887.5 601C875 601 850 601 825 601C800 601 775 601 750 601C725 601 700 601 675 601C650 601 625 601 600 601C575 601 550 601 525 601C500 601 475 601 450 601C425 601 400 601 375 601C350 601 325 601 300 601C275 601 250 601 225 601C200 601 175 601 150 601C125 601 100 601 75 601C50 601 25 601 12.5 601L0 601Z" fill="#c62368"></path></svg>