<svg id="visual" viewBox="0 0 900 600" width="900" height="600" xmlns="http://www.w3.org/2000/svg" xmlns:xlink="http://www.w3.org/1999/xlink" version="1.1"><path d="M0 192L12.5 191.7C25 191.3 50 190.7 75 185.3C100 180 125 170 150 166.7C175 163.3 200 166.7 225 170.3C250 174 275 178 300 175.8C325 173.7 350 165.3 375 164.7C400 164 425 171 450 172.2C475 173.3 500 168.7 525 166C550 163.3 575 162.7 600 164.3C625 166 650 170 675 175.3C700 180.7 725 187.3 750 185.7C775 184 800 174 825 173.7C850 173.3 875 182.7 887.5 187.3L900 192L900 0L887.5 0C875 0 850 0 825 0C800 0 775 0 750 0C725 0 700 0 675 0C650 0 625 0 600 0C575 0 550 0 525 0C500 0 475 0 450 0C425 0 400 0 375 0C350 0 325 0 300 0C275 0 250 0 225 0C200 0 175 0 150 0C125 0 100 0 75 0C50 0 25 0 12.5 0L0 0Z" fill="#fa7268"></path><path d="M0 141L12.5 145.5C25 150 50 159 75 156.8C100 154.7 125 141.3 150 140.5C175 139.7 200 151.3 225 149.5C250 147.7 275 132.3 300 129.2C325 126 350 135 375 143.3C400 151.7 425 159.3 450 161C475 162.7 500 158.3 525 157C550 155.7 575 157.3 600 156C625 154.7 650 150.3 675 150.7C700 151 725 156 750 156.3C775 156.7 800 152.3 825 149.5C850 146.7 875 145.3 887.5 144.7L900 144L900 0L887.5 0C875 0 850 0 825 0C800 0 775 0 750 0C725 0 700 0 675 0C650 0 625 0 600 0C575 0 550 0 525 0C500 0 475 0 450 0C425 0 400 0 375 0C350 0 325 0 300 0C275 0 250 0 225 0C200 0 175 0 150 0C125 0 100 0 75 0C50 0 25 0 12.5 0L0 0Z" fill="#f36567"></path><path d="M0 106L12.5 107C25 108 50 110 75 114.7C100 119.3 125 126.7 150 130.3C175 134 200 134 225 131.3C250 128.7 275 123.3 300 117.5C325 111.7 350 105.3 375 108C400 110.7 425 122.3 450 122.2C475 122 500 110 525 106.8C550 103.7 575 109.3 600 116.2C625 123 650 131 675 130.5C700 130 725 121 750 120.8C775 120.7 800 129.3 825 134C850 138.7 875 139.3 887.5 139.7L900 140L900 0L887.5 0C875 0 850 0 825 0C800 0 775 0 750 0C725 0 700 0 675 0C650 0 625 0 600 0C575 0 550 0 525 0C500 0 475 0 450 0C425 0 400 0 375 0C350 0 325 0 300 0C275 0 250 0 225 0C200 0 175 0 150 0C125 0 100 0 75 0C50 0 25 0 12.5 0L0 0Z" fill="#eb5967"></path><path d="M0 109L12.5 107.7C25 106.3 50 103.7 75 98.2C100 92.7 125 84.3 150 80.2C175 76 200 76 225 79.8C250 83.7 275 91.3 300 96.7C325 102 350 105 375 105.5C400 106 425 104 450 103.3C475 102.7 500 103.3 525 99.5C550 95.7 575 87.3 600 83.3C625 79.3 650 79.7 675 86C700 92.3 725 104.7 750 104.7C775 104.7 800 92.3 825 88.8C850 85.3 875 90.7 887.5 93.3L900 96L900 0L887.5 0C875 0 850 0 825 0C800 0 775 0 750 0C725 0 700 0 675 0C650 0 625 0 600 0C575 0 550 0 525 0C500 0 475 0 450 0C425 0 400 0 375 0C350 0 325 0 300 0C275 0 250 0 225 0C200 0 175 0 150 0C125 0 100 0 75 0C50 0 25 0 12.5 0L0 0Z" fill="#e34c67"></path><path d="M0 91L12.5 86.2C25 81.3 50 71.7 75 71.5C100 71.3 125 80.7 150 80.5C175 80.3 200 70.7 225 69.3C250 68 275 75 300 76C325 77 350 72 375 73.3C400 74.7 425 82.3 450 84.3C475 86.3 500 82.7 525 78.2C550 73.7 575 68.3 600 68C625 67.7 650 72.3 675 75C700 77.7 725 78.3 750 75.5C775 72.7 800 66.3 825 64.2C850 62 875 64 887.5 65L900 66L900 0L887.5 0C875 0 850 0 825 0C800 0 775 0 750 0C725 0 700 0 675 0C650 0 625 0 600 0C575 0 550 0 525 0C500 0 475 0 450 0C425 0 400 0 375 0C350 0 325 0 300 0C275 0 250 0 225 0C200 0 175 0 150 0C125 0 100 0 75 0C50 0 25 0 12.5 0L0 0Z" fill="#da3f67"></path><path d="M0 49L12.5 47.5C25 46 50 43 75 43.7C100 44.3 125 48.7 150 51.7C175 54.7 200 56.3 225 57.8C250 59.3 275 60.7 300 59.8C325 59 350 56 375 51.8C400 47.7 425 42.3 450 42C475 41.7 500 46.3 525 49C550 51.7 575 52.3 600 53.5C625 54.7 650 56.3 675 57.7C700 59 725 60 750 57.7C775 55.3 800 49.7 825 48.2C850 46.7 875 49.3 887.5 50.7L900 52L900 0L887.5 0C875 0 850 0 825 0C800 0 775 0 750 0C725 0 700 0 675 0C650 0 625 0 600 0C575 0 550 0 525 0C500 0 475 0 450 0C425 0 400 0 375 0C350 0 325 0 300 0C275 0 250 0 225 0C200 0 175 0 150 0C125 0 100 0 75 0C50 0 25 0 12.5 0L0 0Z" fill="#d03267"></path><path d="M0 28L12.5 27C25 26 50 24 75 23.8C100 23.7 125 25.3 150 27C175 28.7 200 30.3 225 31C250 31.7 275 31.3 300 29.5C325 27.7 350 24.3 375 25.2C400 26 425 31 450 33.5C475 36 500 36 525 36C550 36 575 36 600 33.3C625 30.7 650 25.3 675 23.3C700 21.3 725 22.7 750 23.7C775 24.7 800 25.3 825 28.2C850 31 875 36 887.5 38.5L900 41L900 0L887.5 0C875 0 850 0 825 0C800 0 775 0 750 0C725 0 700 0 675 0C650 0 625 0 600 0C575 0 550 0 525 0C500 0 475 0 450 0C425 0 400 0 375 0C350 0 325 0 300 0C275 0 250 0 225 0C200 0 175 0 150 0C125 0 100 0 75 0C50 0 25 0 12.5 0L0 0Z" fill="#c62368"></path></svg>